/vscmnt/brussel_pixiu_data/_data_brussel/112/vsc11236/PredSimResults/SUBJ10mtu3D/weighted-trackIG/worker_03.mot
version=1
nRows=6
nColumns=50
inDegrees=yes
endheader
                time	         pelvis_tilt	         pelvis_list	     pelvis_rotation	           pelvis_tx	           pelvis_ty	           pelvis_tz	       hip_flexion_r	     hip_adduction_r	      hip_rotation_r	        knee_angle_r	       ankle_angle_r	         mtp_angle_r	       hip_flexion_l	     hip_adduction_l	      hip_rotation_l	        knee_angle_l	       ankle_angle_l	         mtp_angle_l	    lumbar_extension	      lumbar_bending	     lumbar_rotation	 ercspn_r/activation	 intobl_r/activation	 extobl_r/activation	    abd_r/activation	    add_r/activation	hamstrings_r/activation	bifemsh_r/activation	glut_max_r/activation	iliopsoas_r/activation	rect_fem_r/activation	  vasti_r/activation	gastroc_r/activation	 soleus_r/activation	tib_ant_r/activation	 ercspn_l/activation	 intobl_l/activation	 extobl_l/activation	    abd_l/activation	    add_l/activation	hamstrings_l/activation	bifemsh_l/activation	glut_max_l/activation	iliopsoas_l/activation	rect_fem_l/activation	  vasti_l/activation	gastroc_l/activation	 soleus_l/activation	tib_ant_l/activation	
          0.00000000	         -4.83836375	         -3.13196345	         10.49313059	          0.00000000	          0.82697599	         -0.01532923	         28.81356477	         -0.87324639	         -8.37356292	         -3.50490027	          6.94580796	          0.25194374	        -12.82313697	         -3.36835817	          5.77231956	         -7.72901748	         10.03322884	         24.78269221	         -6.94937798	          1.26833584	         -3.94302697	          0.08997968	          0.16596223	          0.02193173	          0.01192793	          0.12223555	          0.03661632	          0.14075721	          0.00999999	          0.07282874	          0.01219294	          0.01000000	          0.01196553	          0.01000004	          0.26291040	          0.03079593	          0.00999999	          0.00999999	          0.04097533	          0.03444798	          0.02622394	          0.13071560	          0.03435240	          0.33015514	          0.01000001	          0.00999999	          0.25617937	          0.24580626	          0.01711095	
          0.01156763	         -4.90693625	         -2.93744538	         10.32732212	          0.01537854	          0.82526158	         -0.01496059	         28.94757467	         -0.67750474	         -7.39852156	         -5.23077653	          6.64916134	          0.25197092	        -12.90516603	         -3.16622452	          5.11051713	         -9.52935123	          9.51384702	         26.45746716	         -6.73717017	          1.64180012	         -4.10692794	          0.07543608	          0.13913742	          0.01838686	          0.00999999	          0.19695173	          0.03175933	          0.11800638	          0.06195301	          0.06105728	          0.01022218	          0.00999999	          0.01862807	          0.01422758	          0.26707611	          0.08107896	          0.00999999	          0.01000000	          0.03435240	          0.08383997	          0.02198532	          0.10958776	          0.02879995	          0.34777938	          0.01000001	          0.01000002	          0.21477257	          0.23160386	          0.01434527	
          0.02313525	         -4.95883789	         -2.75369523	         10.10129945	          0.03109963	          0.82367347	         -0.01456401	         28.87933386	         -0.50898706	         -6.38932083	         -6.88943798	          6.35528092	          0.23993489	        -12.83871698	         -2.96149590	          4.39071720	        -11.66897723	          8.89163326	         28.08996402	         -6.50158311	          2.04636769	         -4.24624129	          0.06599972	          0.11890468	          0.01541495	          0.05123013	          0.16919461	          0.04490976	          0.09893370	          0.06953207	          0.05118846	          0.01000000	          0.00999999	          0.01561718	          0.01192795	          0.30100536	          0.09691225	          0.00999999	          0.01000000	          0.02879995	          0.07698102	          0.01843204	          0.09187487	          0.02414495	          0.33386965	          0.01000001	          0.01000000	          0.18005843	          0.21510173	          0.01202661	
          0.03470288	         -4.99670564	         -2.57558578	          9.81483587	          0.04694818	          0.82237422	         -0.01406400	         28.63886129	         -0.32434630	         -5.45312479	         -8.26291740	          5.97322309	          0.23014159	        -12.55476718	         -2.75657481	          3.61979528	        -14.22067746	          8.11263342	         29.61569986	         -6.26618518	          2.46261091	         -4.36066517	          0.08028936	          0.09968587	          0.01292340	          0.10011137	          0.17171836	          0.04530048	          0.08294284	          0.08651038	          0.04291476	          0.01000000	          0.00999999	          0.01309294	          0.01000001	          0.32130309	          0.11835695	          0.00999999	          0.00999999	          0.02414495	          0.08199807	          0.01727072	          0.07702494	          0.02024235	          0.32116005	          0.01000000	          0.01000000	          0.15095520	          0.18093943	          0.01008273	
          0.04627050	         -5.02125844	         -2.40434151	          9.47349790	          0.06271453	          0.82150234	         -0.01346495	         28.32034038	         -0.11512486	         -4.61735597	         -9.50759096	          5.60117950	          0.21907409	        -12.00742444	         -2.55823242	          2.79089244	        -17.22069191	          7.17174985	         30.85355095	         -6.04992423	          2.89146620	         -4.44834100	          0.07550877	          0.08357344	          0.01083457	          0.12270207	          0.17422720	          0.04258129	          0.06953662	          0.09634001	          0.03597836	          0.01000000	          0.02899899	          0.01097670	          0.01000000	          0.34262340	          0.14104286	          0.00999999	          0.00999999	          0.02024235	          0.09529432	          0.02037183	          0.06457524	          0.01697054	          0.29589703	          0.01000000	          0.00999999	          0.12655600	          0.15169381	          0.00999999	
          0.05783813	         -5.03327946	         -2.24075613	          9.08017342	          0.07826429	          0.82114541	         -0.01278125	         27.95965031	          0.11029830	         -3.88101766	        -10.67946431	          5.30808427	          0.20814890	        -11.17874423	         -2.37806130	          1.88583327	        -20.66183983	          6.08098955	         31.56529276	         -5.86349901	          3.33180853	         -4.50879202	          0.06330415	          0.07006529	          0.00999999	          0.13294445	          0.14685867	          0.04605190	          0.05829728	          0.08206502	          0.03016310	          0.01000000	          0.08717941	          0.01000000	          0.01000000	          0.35277209	          0.15106531	          0.00999999	          0.00999999	          0.01697054	          0.10623164	          0.02105324	          0.05413781	          0.01422756	          0.25680255	          0.00999999	          0.00999999	          0.10610049	          0.12717522	          0.00999999	
